<svg xmlns="http://www.w3.org/2000/svg" width="175.052" height="41.354" viewBox="0 0 131.289 31.016" version="1.2"><path d="M30.68 2.746a4.59 4.59 0 00-.97-1.441 4.692 4.692 0 00-1.444-.977A4.669 4.669 0 0026.582 0H4.434c-.559 0-1.122.113-1.692.336a4.465 4.465 0 00-1.437.969 4.596 4.596 0 00-.977 1.453A4.536 4.536 0 000 4.434v22.148c0 .555.11 1.121.336 1.711a4.62 4.62 0 00.969 1.418c.41.414.894.738 1.453.976.55.22 1.117.329 1.676.329h21.168l-1.579-2.965H4.433c-.19 0-.374-.04-.562-.117a1.292 1.292 0 01-.465-.309l-.129-.152a1.439 1.439 0 01-.313-.89V4.432c0-.187.04-.374.118-.562.066-.16.176-.316.324-.465.149-.148.305-.258.465-.324.188-.074.371-.113.563-.113h22.148a1.451 1.451 0 01.887.309l.152.128c.137.137.238.29.313.469.078.184.113.371.113.559v8.316l2.969 5.367V4.434c0-.559-.114-1.125-.336-1.688" fill="#a81c21"/><path d="M60.809 10.543c-.075-.055-.196-.145-.32-.168a1.44 1.44 0 00-.446-.066h-1.145c-.18 0-.324.02-.41.05-.176.04-.297.13-.433.239-.114.117-.168.254-.22.375a1.466 1.466 0 00-.065.449v14.324c0 .164.023.317.078.477.035.093.093.234.273.406.074.055.195.144.313.164.14.047.285.066.464.066h1.145c.36 0 .637-.093.828-.285.188-.187.285-.468.285-.828V11.422c0-.164-.023-.316-.078-.48-.039-.094-.094-.231-.27-.399M52.914 10.59a.818.818 0 00-.394-.223 1.486 1.486 0 00-.43-.058H40.363c-.418 0-.808.03-1.175.09-.356.039-.72.124-1.125.257-.399.14-.715.282-.981.43-.3.148-.598.348-.973.652-.254.196-.5.43-.726.692a4.92 4.92 0 00-.574.847c-.141.282-.25.582-.329.891-.074.29-.113.617-.113.98v6.875c0 .356.04.688.113.993.082.304.192.597.336.886.168.32.348.586.555.825.211.25.469.5.774.742.324.254.62.453.91.601.297.164.617.305 1.008.442.343.117.714.21 1.125.277.43.047.8.07 1.175.07H52.09c.137 0 .543 0 .777-.238.168-.129.235-.297.285-.426.043-.132.067-.285.067-.449v-7.531l-.008-.106a1.562 1.562 0 00-.102-.375 1.038 1.038 0 00-.55-.496 1.43 1.43 0 00-.47-.066l-7.07.012c-.117 0-.277.011-.425.062a.694.694 0 00-.344.176c-.172.125-.238.297-.29.426-.046.132-.07.285-.07.453v.57c0 .176.024.328.079.492.046.11.105.23.222.336.121.137.266.192.36.23.14.048.289.071.468.071h4.801v4.047h-9.457c-.187 0-.371-.012-.543-.035a2.25 2.25 0 01-.496-.125 2.07 2.07 0 01-.441-.192 2.151 2.151 0 01-.395-.261 3.502 3.502 0 01-.316-.301 2.446 2.446 0 01-.246-.36 1.715 1.715 0 01-.125-.316c-.024-.14-.051-.293-.051-.433v-6.875c0-.141.027-.29.043-.383.039-.157.082-.274.125-.352.07-.117.148-.242.254-.363.093-.117.21-.223.316-.317.133-.109.277-.191.395-.261.144-.07.285-.145.441-.196.156-.043.324-.093.496-.12.172-.024.356-.036.543-.036H52.09c.175 0 .328-.02.496-.078a.963.963 0 00.336-.21.988.988 0 00.23-.376c.043-.137.067-.285.067-.45v-.585c0-.164-.024-.316-.079-.48a.957.957 0 00-.226-.352M30.734 25.398L23.582 12.34a1.729 1.729 0 00-.074-.172l-.223-.434c-.449-.847-.558-1.039-.66-1.14l-.09-.074c-.047-.036-.105-.086-.191-.13l-.106-.038c-.07-.016-.172-.043-.3-.043h-1.145c-.129 0-.23.027-.3.043l-.106.039c-.086.043-.149.093-.227.152l-.086.086c-.144.172-.777 1.402-.789 1.418L12.258 24.77l-.047.093c-.02.047-.043.09-.062.13l-.043.093c-.02.058-.04.105-.06.144l-.108.528c0 .164.023.316.078.48.039.098.097.223.273.39.074.055.195.145.316.165.133.043.286.066.461.066h.852c.258 0 .523-.101.707-.25.117-.078.23-.183.379-.355a3.96 3.96 0 00.305-.399l.765-1.445c1.414-2.656 2.946-5.531 4.465-8.402l.824-1.555.383.734c1.777 3.328 3.543 6.649 5.059 9.508l.644 1.203c.09.137.192.258.301.383.125.145.238.25.277.262.106.11.239.195.48.281.102.016.204.035.306.035h.851c.375 0 .649-.094.844-.285.113-.117.168-.25.215-.379.047-.133.07-.285.07-.45 0-.07-.004-.14-.04-.273-.003-.015-.007-.043-.019-.074M112.89 12.887l.11-.11c.066-.086.113-.172.168-.316.043-.137.07-.285.07-.453v-.586c0-.164-.027-.317-.082-.48a1.324 1.324 0 00-.156-.286l-.113-.117c-.078-.055-.196-.14-.317-.164a1.381 1.381 0 00-.46-.066H95.511c-.117 0-.282.011-.43.058a.824.824 0 00-.402.23c-.117.122-.188.27-.227.372-.047.136-.07.289-.07.453v.586c0 .34.105.633.3.828.122.121.262.18.352.21.16.063.344.075.477.075h6.61v12.625c0 .367.093.637.288.828.285.285.696.285.828.285h1.14c.138 0 .544 0 .83-.285.202-.199.3-.476.3-.828V13.121h6.601c.176 0 .329-.02.5-.078.075-.031.176-.078.282-.156M131.203 25.3a1.092 1.092 0 00-.105-.253c-.028-.078-.07-.16-.125-.281l-6.946-12.555c-.02-.043-.058-.113-.109-.215l-.16-.3c-.442-.825-.54-1-.64-1.102a1.405 1.405 0 00-.278-.203l-.117-.043c-.07-.016-.164-.04-.293-.04h-1.145c-.117 0-.222.028-.285.044l-.105.039a1.25 1.25 0 00-.286.203c-.113.117-.39.601-.832 1.453l-7.023 12.719a2.38 2.38 0 00-.117.254 1.833 1.833 0 00-.102.246c-.027.07-.062.172-.074.293-.016.085-.016.156-.016.203 0 .164.024.316.051.386.031.157.11.301.238.43.118.117.278.2.375.215.133.043.286.066.45.066h.867c.246 0 .484-.086.71-.25.114-.078.223-.18.348-.328.098-.11.196-.238.317-.422 1.629-3.039 3.426-6.441 5.226-9.847l.836-1.559 2.828 5.32c1.157 2.168 2.254 4.243 3.266 6.13.094.14.191.269.285.378.125.145.235.25.313.297.12.102.234.172.445.242.102.024.207.04.309.04h.863c.23 0 .57-.028.82-.282.125-.12.196-.277.23-.355l.028-.102c.016-.11.035-.234.035-.375l.004-.258zm0 0M90.863 10.543c-.07-.055-.191-.148-.316-.168a1.466 1.466 0 00-.45-.066h-1.14c-.18 0-.328.023-.41.05a.863.863 0 00-.371.184l-.117.113a1.571 1.571 0 00-.168.32 1.426 1.426 0 00-.063.446v14.324c0 .164.02.317.074.48.04.098.098.231.282.407.074.055.195.14.312.16.133.047.281.066.461.066h1.14c.364 0 .641-.097.829-.28.187-.192.289-.474.289-.833V11.422c0-.164-.028-.317-.086-.5a1.04 1.04 0 00-.266-.379M84.371 24.348a.924.924 0 00-.375-.23 1.409 1.409 0 00-.469-.071H71.801c-.188 0-.371-.012-.543-.035a2.006 2.006 0 01-.496-.125 1.89 1.89 0 01-.442-.192 1.973 1.973 0 01-.195-.117l-.207-.16a2.068 2.068 0 01-.309-.285 2.385 2.385 0 01-.226-.324 1.692 1.692 0 01-.14-.395 1.876 1.876 0 01-.056-.39V11.422c0-.164-.019-.316-.05-.395a.898.898 0 00-.239-.437.83.83 0 00-.375-.215 1.356 1.356 0 00-.449-.066h-1.14c-.176 0-.329.02-.41.05a.745.745 0 00-.372.192c-.164.129-.23.293-.28.422a1.466 1.466 0 00-.067.449v10.602c0 .289.035.593.113.992.082.304.191.601.336.886a5 5 0 00.555.825c.21.254.472.504.832.789.312.238.597.426.855.554.285.164.598.297 1.008.442.34.117.71.21 1.121.273.43.051.805.074 1.176.074h11.726c.38 0 .657-.093.844-.285.113-.117.172-.25.219-.379.047-.132.066-.285.066-.449v-.57c0-.176-.02-.328-.074-.496a.984.984 0 00-.21-.332" fill="#2e2b2b"/></svg>